<svg xmlns="http://www.w3.org/2000/svg" xmlns:xlink="http://www.w3.org/1999/xlink" width="16" height="15" viewBox="0 0 16 15"><defs><path id="yibra" d="M437.416 9121.358c-.573 0-1.134-.165-1.676-.243-2.191 2.77-5.647 2.225-5.647 2.225 2.44-1.155 2.391-3.069 1.957-3.324-1.916-1.126-3.068-2.84-3.068-4.76 0-3.391 3.727-6.14 8.434-6.14 4.708 0 7.577 2.749 7.577 6.14 0 3.391-2.869 6.102-7.577 6.102zm-4.174-7.483a1.5 1.5 0 1 0 0 3 1.5 1.5 0 0 0 0-3zm3.75 0a1.5 1.5 0 1 0 0 3 1.5 1.5 0 0 0 0-3zm3.75 0a1.5 1.5 0 1 0 0 3 1.5 1.5 0 0 0 0-3z"/></defs><g><g transform="translate(-429 -9109)"><use fill="#95e1d3" xlink:href="#yibra"/></g></g></svg>